<svg xmlns="http://www.w3.org/2000/svg" width="1200" height="720" viewBox="0 0 1200 720">
<rect width="100%" height="100%" fill="#fbfaf6"/>
<text x="600" y="42" text-anchor="middle" font-size="28" fill="#1f2933">Total Character Reduction by Experiment Group</text>
<line x1="90" y1="550.00" x2="1160" y2="550.00" stroke="#334e68" stroke-width="2"/>
<line x1="90" y1="550.00" x2="1160" y2="550.00" stroke="#d9e2ec" stroke-width="1"/>
<text x="78" y="555.00" text-anchor="end" font-size="14" fill="#486581">0</text>
<line x1="90" y1="456.00" x2="1160" y2="456.00" stroke="#d9e2ec" stroke-width="1"/>
<text x="78" y="461.00" text-anchor="end" font-size="14" fill="#486581">23340</text>
<line x1="90" y1="362.00" x2="1160" y2="362.00" stroke="#d9e2ec" stroke-width="1"/>
<text x="78" y="367.00" text-anchor="end" font-size="14" fill="#486581">46680</text>
<line x1="90" y1="268.00" x2="1160" y2="268.00" stroke="#d9e2ec" stroke-width="1"/>
<text x="78" y="273.00" text-anchor="end" font-size="14" fill="#486581">70019</text>
<line x1="90" y1="174.00" x2="1160" y2="174.00" stroke="#d9e2ec" stroke-width="1"/>
<text x="78" y="179.00" text-anchor="end" font-size="14" fill="#486581">93359</text>
<line x1="90" y1="80.00" x2="1160" y2="80.00" stroke="#d9e2ec" stroke-width="1"/>
<text x="78" y="85.00" text-anchor="end" font-size="14" fill="#486581">116699</text>
<rect x="113.41" y="411.98" width="86.94" height="138.02" fill="#c46a2d" rx="4"/>
<text x="156.88" y="403.98" text-anchor="middle" font-size="13" fill="#102a43">34269</text>
<text x="156.88" y="572.00" text-anchor="end" transform="rotate(-28 156.88,572.00)" font-size="13" fill="#243b53">single_word</text>
<rect x="247.16" y="133.49" width="86.94" height="416.51" fill="#c46a2d" rx="4"/>
<text x="290.62" y="125.49" text-anchor="middle" font-size="13" fill="#102a43">103417</text>
<text x="290.62" y="572.00" text-anchor="end" transform="rotate(-28 290.62,572.00)" font-size="13" fill="#243b53">multi_word_phrase</text>
<rect x="380.91" y="122.69" width="86.94" height="427.31" fill="#c46a2d" rx="4"/>
<text x="424.38" y="114.69" text-anchor="middle" font-size="13" fill="#102a43">106099</text>
<text x="424.38" y="572.00" text-anchor="end" transform="rotate(-28 424.38,572.00)" font-size="13" fill="#243b53">number_heavy</text>
<rect x="514.66" y="122.16" width="86.94" height="427.84" fill="#c46a2d" rx="4"/>
<text x="558.12" y="114.16" text-anchor="middle" font-size="13" fill="#102a43">106232</text>
<text x="558.12" y="572.00" text-anchor="end" transform="rotate(-28 558.12,572.00)" font-size="13" fill="#243b53">punctuation_heavy</text>
<rect x="648.41" y="122.03" width="86.94" height="427.97" fill="#c46a2d" rx="4"/>
<text x="691.88" y="114.03" text-anchor="middle" font-size="13" fill="#102a43">106263</text>
<text x="691.88" y="572.00" text-anchor="end" transform="rotate(-28 691.88,572.00)" font-size="13" fill="#243b53">mixed_digits_punctuation</text>
<rect x="782.16" y="53.31" width="86.94" height="496.69" fill="#c46a2d" rx="4"/>
<text x="825.62" y="45.31" text-anchor="middle" font-size="13" fill="#102a43">123325</text>
<text x="825.62" y="572.00" text-anchor="end" transform="rotate(-28 825.62,572.00)" font-size="13" fill="#243b53">long_sentence_gt20_words</text>
<rect x="915.91" y="312.58" width="86.94" height="237.42" fill="#c46a2d" rx="4"/>
<text x="959.38" y="304.58" text-anchor="middle" font-size="13" fill="#102a43">58951</text>
<text x="959.38" y="572.00" text-anchor="end" transform="rotate(-28 959.38,572.00)" font-size="13" fill="#243b53">paragraph_samples</text>
<rect x="1049.66" y="523.31" width="86.94" height="26.69" fill="#c46a2d" rx="4"/>
<text x="1093.12" y="515.31" text-anchor="middle" font-size="13" fill="#102a43">6626</text>
<text x="1093.12" y="572.00" text-anchor="end" transform="rotate(-28 1093.12,572.00)" font-size="13" fill="#243b53">long_text_gt200_words</text>
</svg>