<svg xmlns="http://www.w3.org/2000/svg" width="1200" height="720" viewBox="0 0 1200 720">
<rect width="100%" height="100%" fill="#fbfaf6"/>
<text x="600" y="42" text-anchor="middle" font-size="28" fill="#1f2933">Total Normalized Reduction by Experiment Group</text>
<line x1="90" y1="550.00" x2="1160" y2="550.00" stroke="#334e68" stroke-width="2"/>
<line x1="90" y1="550.00" x2="1160" y2="550.00" stroke="#d9e2ec" stroke-width="1"/>
<text x="78" y="555.00" text-anchor="end" font-size="14" fill="#486581">0</text>
<line x1="90" y1="456.00" x2="1160" y2="456.00" stroke="#d9e2ec" stroke-width="1"/>
<text x="78" y="461.00" text-anchor="end" font-size="14" fill="#486581">31005</text>
<line x1="90" y1="362.00" x2="1160" y2="362.00" stroke="#d9e2ec" stroke-width="1"/>
<text x="78" y="367.00" text-anchor="end" font-size="14" fill="#486581">62011</text>
<line x1="90" y1="268.00" x2="1160" y2="268.00" stroke="#d9e2ec" stroke-width="1"/>
<text x="78" y="273.00" text-anchor="end" font-size="14" fill="#486581">93016</text>
<line x1="90" y1="174.00" x2="1160" y2="174.00" stroke="#d9e2ec" stroke-width="1"/>
<text x="78" y="179.00" text-anchor="end" font-size="14" fill="#486581">124022</text>
<line x1="90" y1="80.00" x2="1160" y2="80.00" stroke="#d9e2ec" stroke-width="1"/>
<text x="78" y="85.00" text-anchor="end" font-size="14" fill="#486581">155027</text>
<rect x="113.41" y="408.68" width="86.94" height="141.32" fill="#c46a2d" rx="4"/>
<text x="156.88" y="400.68" text-anchor="middle" font-size="13" fill="#102a43">46614</text>
<text x="156.88" y="572.00" text-anchor="end" transform="rotate(-28 156.88,572.00)" font-size="13" fill="#243b53">single_word</text>
<rect x="247.16" y="78.59" width="86.94" height="471.41" fill="#c46a2d" rx="4"/>
<text x="290.62" y="70.59" text-anchor="middle" font-size="13" fill="#102a43">155493</text>
<text x="290.62" y="572.00" text-anchor="end" transform="rotate(-28 290.62,572.00)" font-size="13" fill="#243b53">multi_word_phrase</text>
<rect x="380.91" y="73.45" width="86.94" height="476.55" fill="#c46a2d" rx="4"/>
<text x="424.38" y="65.45" text-anchor="middle" font-size="13" fill="#102a43">157189</text>
<text x="424.38" y="572.00" text-anchor="end" transform="rotate(-28 424.38,572.00)" font-size="13" fill="#243b53">number_heavy</text>
<rect x="514.66" y="73.27" width="86.94" height="476.73" fill="#c46a2d" rx="4"/>
<text x="558.12" y="65.27" text-anchor="middle" font-size="13" fill="#102a43">157247</text>
<text x="558.12" y="572.00" text-anchor="end" transform="rotate(-28 558.12,572.00)" font-size="13" fill="#243b53">punctuation_heavy</text>
<rect x="648.41" y="73.31" width="86.94" height="476.69" fill="#c46a2d" rx="4"/>
<text x="691.88" y="65.31" text-anchor="middle" font-size="13" fill="#102a43">157234</text>
<text x="691.88" y="572.00" text-anchor="end" transform="rotate(-28 691.88,572.00)" font-size="13" fill="#243b53">mixed_digits_punctuation</text>
<rect x="782.16" y="393.20" width="86.94" height="156.80" fill="#c46a2d" rx="4"/>
<text x="825.62" y="385.20" text-anchor="middle" font-size="13" fill="#102a43">51719</text>
<text x="825.62" y="572.00" text-anchor="end" transform="rotate(-28 825.62,572.00)" font-size="13" fill="#243b53">long_sentence_gt20_words</text>
<rect x="915.91" y="484.61" width="86.94" height="65.39" fill="#c46a2d" rx="4"/>
<text x="959.38" y="476.61" text-anchor="middle" font-size="13" fill="#102a43">21567</text>
<text x="959.38" y="572.00" text-anchor="end" transform="rotate(-28 959.38,572.00)" font-size="13" fill="#243b53">paragraph_samples</text>
<rect x="1049.66" y="543.27" width="86.94" height="6.73" fill="#c46a2d" rx="4"/>
<text x="1093.12" y="535.27" text-anchor="middle" font-size="13" fill="#102a43">2220</text>
<text x="1093.12" y="572.00" text-anchor="end" transform="rotate(-28 1093.12,572.00)" font-size="13" fill="#243b53">long_text_gt200_words</text>
</svg>